<?xml version="1.0" encoding="utf-8" standalone="no"?>
<!DOCTYPE svg PUBLIC "-//W3C//DTD SVG 1.1//EN"
  "http://www.w3.org/Graphics/SVG/1.1/DTD/svg11.dtd">
<svg xmlns:xlink="http://www.w3.org/1999/xlink" width="1105.92pt" height="548.928pt" viewBox="0 0 1105.92 548.928" xmlns="http://www.w3.org/2000/svg" version="1.1">
 <metadata>
  <rdf:RDF xmlns:dc="http://purl.org/dc/elements/1.1/" xmlns:cc="http://creativecommons.org/ns#" xmlns:rdf="http://www.w3.org/1999/02/22-rdf-syntax-ns#">
   <cc:Work>
    <dc:type rdf:resource="http://purl.org/dc/dcmitype/StillImage"/>
    <dc:date>2023-04-12T11:09:23.148253</dc:date>
    <dc:format>image/svg+xml</dc:format>
    <dc:creator>
     <cc:Agent>
      <dc:title>Matplotlib v3.6.2, https://matplotlib.org/</dc:title>
     </cc:Agent>
    </dc:creator>
   </cc:Work>
  </rdf:RDF>
 </metadata>
 <defs>
  <style type="text/css">*{stroke-linejoin: round; stroke-linecap: butt}</style>
 </defs>
 <g id="figure_1">
  <g id="patch_1">
   <path d="M 0 548.928 
L 1105.92 548.928 
L 1105.92 0 
L 0 0 
z
" style="fill: #ffffff"/>
  </g>
  <g id="axes_1">
   <g id="patch_2">
    <path d="M 789.665244 138.263713 
L 758.408982 138.263713 
L 705.2797 176.787105 
" style="fill: none; stroke: #000000; stroke-linecap: round"/>
   </g>
   <g id="text_1">
    <g id="patch_3">
     <path d="M 792.028262 146.102776 
L 909.640762 146.102776 
L 909.640762 130.424651 
L 792.028262 130.424651 
z
" style="fill: #ffffff; stroke: #000000; stroke-width: 0.72; stroke-linejoin: miter"/>
    </g>
    <!-- Oculus Quest 2 - 42 % -->
    <g transform="translate(795.028262 141.023088) scale(0.1 -0.1)">
     <defs>
      <path id="DejaVuSans-4f" d="M 2522 4238 
Q 1834 4238 1429 3725 
Q 1025 3213 1025 2328 
Q 1025 1447 1429 934 
Q 1834 422 2522 422 
Q 3209 422 3611 934 
Q 4013 1447 4013 2328 
Q 4013 3213 3611 3725 
Q 3209 4238 2522 4238 
z
M 2522 4750 
Q 3503 4750 4090 4092 
Q 4678 3434 4678 2328 
Q 4678 1225 4090 567 
Q 3503 -91 2522 -91 
Q 1538 -91 948 565 
Q 359 1222 359 2328 
Q 359 3434 948 4092 
Q 1538 4750 2522 4750 
z
" transform="scale(0.015625)"/>
      <path id="DejaVuSans-63" d="M 3122 3366 
L 3122 2828 
Q 2878 2963 2633 3030 
Q 2388 3097 2138 3097 
Q 1578 3097 1268 2742 
Q 959 2388 959 1747 
Q 959 1106 1268 751 
Q 1578 397 2138 397 
Q 2388 397 2633 464 
Q 2878 531 3122 666 
L 3122 134 
Q 2881 22 2623 -34 
Q 2366 -91 2075 -91 
Q 1284 -91 818 406 
Q 353 903 353 1747 
Q 353 2603 823 3093 
Q 1294 3584 2113 3584 
Q 2378 3584 2631 3529 
Q 2884 3475 3122 3366 
z
" transform="scale(0.015625)"/>
      <path id="DejaVuSans-75" d="M 544 1381 
L 544 3500 
L 1119 3500 
L 1119 1403 
Q 1119 906 1312 657 
Q 1506 409 1894 409 
Q 2359 409 2629 706 
Q 2900 1003 2900 1516 
L 2900 3500 
L 3475 3500 
L 3475 0 
L 2900 0 
L 2900 538 
Q 2691 219 2414 64 
Q 2138 -91 1772 -91 
Q 1169 -91 856 284 
Q 544 659 544 1381 
z
M 1991 3584 
L 1991 3584 
z
" transform="scale(0.015625)"/>
      <path id="DejaVuSans-6c" d="M 603 4863 
L 1178 4863 
L 1178 0 
L 603 0 
L 603 4863 
z
" transform="scale(0.015625)"/>
      <path id="DejaVuSans-73" d="M 2834 3397 
L 2834 2853 
Q 2591 2978 2328 3040 
Q 2066 3103 1784 3103 
Q 1356 3103 1142 2972 
Q 928 2841 928 2578 
Q 928 2378 1081 2264 
Q 1234 2150 1697 2047 
L 1894 2003 
Q 2506 1872 2764 1633 
Q 3022 1394 3022 966 
Q 3022 478 2636 193 
Q 2250 -91 1575 -91 
Q 1294 -91 989 -36 
Q 684 19 347 128 
L 347 722 
Q 666 556 975 473 
Q 1284 391 1588 391 
Q 1994 391 2212 530 
Q 2431 669 2431 922 
Q 2431 1156 2273 1281 
Q 2116 1406 1581 1522 
L 1381 1569 
Q 847 1681 609 1914 
Q 372 2147 372 2553 
Q 372 3047 722 3315 
Q 1072 3584 1716 3584 
Q 2034 3584 2315 3537 
Q 2597 3491 2834 3397 
z
" transform="scale(0.015625)"/>
      <path id="DejaVuSans-20" transform="scale(0.015625)"/>
      <path id="DejaVuSans-51" d="M 2522 4238 
Q 1834 4238 1429 3725 
Q 1025 3213 1025 2328 
Q 1025 1447 1429 934 
Q 1834 422 2522 422 
Q 3209 422 3611 934 
Q 4013 1447 4013 2328 
Q 4013 3213 3611 3725 
Q 3209 4238 2522 4238 
z
M 3406 84 
L 4238 -825 
L 3475 -825 
L 2784 -78 
Q 2681 -84 2626 -87 
Q 2572 -91 2522 -91 
Q 1538 -91 948 567 
Q 359 1225 359 2328 
Q 359 3434 948 4092 
Q 1538 4750 2522 4750 
Q 3503 4750 4090 4092 
Q 4678 3434 4678 2328 
Q 4678 1516 4351 937 
Q 4025 359 3406 84 
z
" transform="scale(0.015625)"/>
      <path id="DejaVuSans-65" d="M 3597 1894 
L 3597 1613 
L 953 1613 
Q 991 1019 1311 708 
Q 1631 397 2203 397 
Q 2534 397 2845 478 
Q 3156 559 3463 722 
L 3463 178 
Q 3153 47 2828 -22 
Q 2503 -91 2169 -91 
Q 1331 -91 842 396 
Q 353 884 353 1716 
Q 353 2575 817 3079 
Q 1281 3584 2069 3584 
Q 2775 3584 3186 3129 
Q 3597 2675 3597 1894 
z
M 3022 2063 
Q 3016 2534 2758 2815 
Q 2500 3097 2075 3097 
Q 1594 3097 1305 2825 
Q 1016 2553 972 2059 
L 3022 2063 
z
" transform="scale(0.015625)"/>
      <path id="DejaVuSans-74" d="M 1172 4494 
L 1172 3500 
L 2356 3500 
L 2356 3053 
L 1172 3053 
L 1172 1153 
Q 1172 725 1289 603 
Q 1406 481 1766 481 
L 2356 481 
L 2356 0 
L 1766 0 
Q 1100 0 847 248 
Q 594 497 594 1153 
L 594 3053 
L 172 3053 
L 172 3500 
L 594 3500 
L 594 4494 
L 1172 4494 
z
" transform="scale(0.015625)"/>
      <path id="DejaVuSans-32" d="M 1228 531 
L 3431 531 
L 3431 0 
L 469 0 
L 469 531 
Q 828 903 1448 1529 
Q 2069 2156 2228 2338 
Q 2531 2678 2651 2914 
Q 2772 3150 2772 3378 
Q 2772 3750 2511 3984 
Q 2250 4219 1831 4219 
Q 1534 4219 1204 4116 
Q 875 4013 500 3803 
L 500 4441 
Q 881 4594 1212 4672 
Q 1544 4750 1819 4750 
Q 2544 4750 2975 4387 
Q 3406 4025 3406 3419 
Q 3406 3131 3298 2873 
Q 3191 2616 2906 2266 
Q 2828 2175 2409 1742 
Q 1991 1309 1228 531 
z
" transform="scale(0.015625)"/>
      <path id="DejaVuSans-2d" d="M 313 2009 
L 1997 2009 
L 1997 1497 
L 313 1497 
L 313 2009 
z
" transform="scale(0.015625)"/>
      <path id="DejaVuSans-34" d="M 2419 4116 
L 825 1625 
L 2419 1625 
L 2419 4116 
z
M 2253 4666 
L 3047 4666 
L 3047 1625 
L 3713 1625 
L 3713 1100 
L 3047 1100 
L 3047 0 
L 2419 0 
L 2419 1100 
L 313 1100 
L 313 1709 
L 2253 4666 
z
" transform="scale(0.015625)"/>
      <path id="DejaVuSans-25" d="M 4653 2053 
Q 4381 2053 4226 1822 
Q 4072 1591 4072 1178 
Q 4072 772 4226 539 
Q 4381 306 4653 306 
Q 4919 306 5073 539 
Q 5228 772 5228 1178 
Q 5228 1588 5073 1820 
Q 4919 2053 4653 2053 
z
M 4653 2450 
Q 5147 2450 5437 2106 
Q 5728 1763 5728 1178 
Q 5728 594 5436 251 
Q 5144 -91 4653 -91 
Q 4153 -91 3862 251 
Q 3572 594 3572 1178 
Q 3572 1766 3864 2108 
Q 4156 2450 4653 2450 
z
M 1428 4353 
Q 1159 4353 1004 4120 
Q 850 3888 850 3481 
Q 850 3069 1003 2837 
Q 1156 2606 1428 2606 
Q 1700 2606 1854 2837 
Q 2009 3069 2009 3481 
Q 2009 3884 1853 4118 
Q 1697 4353 1428 4353 
z
M 4250 4750 
L 4750 4750 
L 1831 -91 
L 1331 -91 
L 4250 4750 
z
M 1428 4750 
Q 1922 4750 2215 4408 
Q 2509 4066 2509 3481 
Q 2509 2891 2217 2550 
Q 1925 2209 1428 2209 
Q 931 2209 642 2551 
Q 353 2894 353 3481 
Q 353 4063 643 4406 
Q 934 4750 1428 4750 
z
" transform="scale(0.015625)"/>
     </defs>
     <use xlink:href="#DejaVuSans-4f"/>
     <use xlink:href="#DejaVuSans-63" x="78.710938"/>
     <use xlink:href="#DejaVuSans-75" x="133.691406"/>
     <use xlink:href="#DejaVuSans-6c" x="197.070312"/>
     <use xlink:href="#DejaVuSans-75" x="224.853516"/>
     <use xlink:href="#DejaVuSans-73" x="288.232422"/>
     <use xlink:href="#DejaVuSans-20" x="340.332031"/>
     <use xlink:href="#DejaVuSans-51" x="372.119141"/>
     <use xlink:href="#DejaVuSans-75" x="450.830078"/>
     <use xlink:href="#DejaVuSans-65" x="514.208984"/>
     <use xlink:href="#DejaVuSans-73" x="575.732422"/>
     <use xlink:href="#DejaVuSans-74" x="627.832031"/>
     <use xlink:href="#DejaVuSans-20" x="667.041016"/>
     <use xlink:href="#DejaVuSans-32" x="698.828125"/>
     <use xlink:href="#DejaVuSans-20" x="762.451172"/>
     <use xlink:href="#DejaVuSans-2d" x="794.238281"/>
     <use xlink:href="#DejaVuSans-20" x="830.322266"/>
     <use xlink:href="#DejaVuSans-34" x="862.109375"/>
     <use xlink:href="#DejaVuSans-32" x="925.732422"/>
     <use xlink:href="#DejaVuSans-20" x="989.355469"/>
     <use xlink:href="#DejaVuSans-25" x="1021.142578"/>
    </g>
   </g>
   <g id="patch_4">
    <path d="M 343.898894 111.790085 
L 397.483887 111.790085 
L 444.423453 157.653464 
" style="fill: none; stroke: #000000; stroke-linecap: round"/>
   </g>
   <g id="text_2">
    <g id="patch_5">
     <path d="M 215.389738 119.629148 
L 341.539738 119.629148 
L 341.539738 103.951023 
L 215.389738 103.951023 
z
" style="fill: #ffffff; stroke: #000000; stroke-width: 0.72; stroke-linejoin: miter"/>
    </g>
    <!-- Valve Index HMD - 13 % -->
    <g transform="translate(218.389738 114.54946) scale(0.1 -0.1)">
     <defs>
      <path id="DejaVuSans-56" d="M 1831 0 
L 50 4666 
L 709 4666 
L 2188 738 
L 3669 4666 
L 4325 4666 
L 2547 0 
L 1831 0 
z
" transform="scale(0.015625)"/>
      <path id="DejaVuSans-61" d="M 2194 1759 
Q 1497 1759 1228 1600 
Q 959 1441 959 1056 
Q 959 750 1161 570 
Q 1363 391 1709 391 
Q 2188 391 2477 730 
Q 2766 1069 2766 1631 
L 2766 1759 
L 2194 1759 
z
M 3341 1997 
L 3341 0 
L 2766 0 
L 2766 531 
Q 2569 213 2275 61 
Q 1981 -91 1556 -91 
Q 1019 -91 701 211 
Q 384 513 384 1019 
Q 384 1609 779 1909 
Q 1175 2209 1959 2209 
L 2766 2209 
L 2766 2266 
Q 2766 2663 2505 2880 
Q 2244 3097 1772 3097 
Q 1472 3097 1187 3025 
Q 903 2953 641 2809 
L 641 3341 
Q 956 3463 1253 3523 
Q 1550 3584 1831 3584 
Q 2591 3584 2966 3190 
Q 3341 2797 3341 1997 
z
" transform="scale(0.015625)"/>
      <path id="DejaVuSans-76" d="M 191 3500 
L 800 3500 
L 1894 563 
L 2988 3500 
L 3597 3500 
L 2284 0 
L 1503 0 
L 191 3500 
z
" transform="scale(0.015625)"/>
      <path id="DejaVuSans-49" d="M 628 4666 
L 1259 4666 
L 1259 0 
L 628 0 
L 628 4666 
z
" transform="scale(0.015625)"/>
      <path id="DejaVuSans-6e" d="M 3513 2113 
L 3513 0 
L 2938 0 
L 2938 2094 
Q 2938 2591 2744 2837 
Q 2550 3084 2163 3084 
Q 1697 3084 1428 2787 
Q 1159 2491 1159 1978 
L 1159 0 
L 581 0 
L 581 3500 
L 1159 3500 
L 1159 2956 
Q 1366 3272 1645 3428 
Q 1925 3584 2291 3584 
Q 2894 3584 3203 3211 
Q 3513 2838 3513 2113 
z
" transform="scale(0.015625)"/>
      <path id="DejaVuSans-64" d="M 2906 2969 
L 2906 4863 
L 3481 4863 
L 3481 0 
L 2906 0 
L 2906 525 
Q 2725 213 2448 61 
Q 2172 -91 1784 -91 
Q 1150 -91 751 415 
Q 353 922 353 1747 
Q 353 2572 751 3078 
Q 1150 3584 1784 3584 
Q 2172 3584 2448 3432 
Q 2725 3281 2906 2969 
z
M 947 1747 
Q 947 1113 1208 752 
Q 1469 391 1925 391 
Q 2381 391 2643 752 
Q 2906 1113 2906 1747 
Q 2906 2381 2643 2742 
Q 2381 3103 1925 3103 
Q 1469 3103 1208 2742 
Q 947 2381 947 1747 
z
" transform="scale(0.015625)"/>
      <path id="DejaVuSans-78" d="M 3513 3500 
L 2247 1797 
L 3578 0 
L 2900 0 
L 1881 1375 
L 863 0 
L 184 0 
L 1544 1831 
L 300 3500 
L 978 3500 
L 1906 2253 
L 2834 3500 
L 3513 3500 
z
" transform="scale(0.015625)"/>
      <path id="DejaVuSans-48" d="M 628 4666 
L 1259 4666 
L 1259 2753 
L 3553 2753 
L 3553 4666 
L 4184 4666 
L 4184 0 
L 3553 0 
L 3553 2222 
L 1259 2222 
L 1259 0 
L 628 0 
L 628 4666 
z
" transform="scale(0.015625)"/>
      <path id="DejaVuSans-4d" d="M 628 4666 
L 1569 4666 
L 2759 1491 
L 3956 4666 
L 4897 4666 
L 4897 0 
L 4281 0 
L 4281 4097 
L 3078 897 
L 2444 897 
L 1241 4097 
L 1241 0 
L 628 0 
L 628 4666 
z
" transform="scale(0.015625)"/>
      <path id="DejaVuSans-44" d="M 1259 4147 
L 1259 519 
L 2022 519 
Q 2988 519 3436 956 
Q 3884 1394 3884 2338 
Q 3884 3275 3436 3711 
Q 2988 4147 2022 4147 
L 1259 4147 
z
M 628 4666 
L 1925 4666 
Q 3281 4666 3915 4102 
Q 4550 3538 4550 2338 
Q 4550 1131 3912 565 
Q 3275 0 1925 0 
L 628 0 
L 628 4666 
z
" transform="scale(0.015625)"/>
      <path id="DejaVuSans-31" d="M 794 531 
L 1825 531 
L 1825 4091 
L 703 3866 
L 703 4441 
L 1819 4666 
L 2450 4666 
L 2450 531 
L 3481 531 
L 3481 0 
L 794 0 
L 794 531 
z
" transform="scale(0.015625)"/>
      <path id="DejaVuSans-33" d="M 2597 2516 
Q 3050 2419 3304 2112 
Q 3559 1806 3559 1356 
Q 3559 666 3084 287 
Q 2609 -91 1734 -91 
Q 1441 -91 1130 -33 
Q 819 25 488 141 
L 488 750 
Q 750 597 1062 519 
Q 1375 441 1716 441 
Q 2309 441 2620 675 
Q 2931 909 2931 1356 
Q 2931 1769 2642 2001 
Q 2353 2234 1838 2234 
L 1294 2234 
L 1294 2753 
L 1863 2753 
Q 2328 2753 2575 2939 
Q 2822 3125 2822 3475 
Q 2822 3834 2567 4026 
Q 2313 4219 1838 4219 
Q 1578 4219 1281 4162 
Q 984 4106 628 3988 
L 628 4550 
Q 988 4650 1302 4700 
Q 1616 4750 1894 4750 
Q 2613 4750 3031 4423 
Q 3450 4097 3450 3541 
Q 3450 3153 3228 2886 
Q 3006 2619 2597 2516 
z
" transform="scale(0.015625)"/>
     </defs>
     <use xlink:href="#DejaVuSans-56"/>
     <use xlink:href="#DejaVuSans-61" x="60.658203"/>
     <use xlink:href="#DejaVuSans-6c" x="121.9375"/>
     <use xlink:href="#DejaVuSans-76" x="149.720703"/>
     <use xlink:href="#DejaVuSans-65" x="208.900391"/>
     <use xlink:href="#DejaVuSans-20" x="270.423828"/>
     <use xlink:href="#DejaVuSans-49" x="302.210938"/>
     <use xlink:href="#DejaVuSans-6e" x="331.703125"/>
     <use xlink:href="#DejaVuSans-64" x="395.082031"/>
     <use xlink:href="#DejaVuSans-65" x="458.558594"/>
     <use xlink:href="#DejaVuSans-78" x="518.332031"/>
     <use xlink:href="#DejaVuSans-20" x="577.511719"/>
     <use xlink:href="#DejaVuSans-48" x="609.298828"/>
     <use xlink:href="#DejaVuSans-4d" x="684.494141"/>
     <use xlink:href="#DejaVuSans-44" x="770.773438"/>
     <use xlink:href="#DejaVuSans-20" x="847.775391"/>
     <use xlink:href="#DejaVuSans-2d" x="879.5625"/>
     <use xlink:href="#DejaVuSans-20" x="915.646484"/>
     <use xlink:href="#DejaVuSans-31" x="947.433594"/>
     <use xlink:href="#DejaVuSans-33" x="1011.056641"/>
     <use xlink:href="#DejaVuSans-20" x="1074.679688"/>
     <use xlink:href="#DejaVuSans-25" x="1106.466797"/>
    </g>
   </g>
   <g id="patch_6">
    <path d="M 343.895743 264.600336 
L 395.986755 267.547011 
" style="fill: none; stroke: #000000; stroke-linecap: round"/>
   </g>
   <g id="text_3">
    <g id="patch_7">
     <path d="M 236.4413 271.679596 
L 341.539738 271.679596 
L 341.539738 256.001471 
L 236.4413 256.001471 
z
" style="fill: #ffffff; stroke: #000000; stroke-width: 0.72; stroke-linejoin: miter"/>
    </g>
    <!-- Oculus Rift S - 10 % -->
    <g transform="translate(239.4413 266.599909) scale(0.1 -0.1)">
     <defs>
      <path id="DejaVuSans-52" d="M 2841 2188 
Q 3044 2119 3236 1894 
Q 3428 1669 3622 1275 
L 4263 0 
L 3584 0 
L 2988 1197 
Q 2756 1666 2539 1819 
Q 2322 1972 1947 1972 
L 1259 1972 
L 1259 0 
L 628 0 
L 628 4666 
L 2053 4666 
Q 2853 4666 3247 4331 
Q 3641 3997 3641 3322 
Q 3641 2881 3436 2590 
Q 3231 2300 2841 2188 
z
M 1259 4147 
L 1259 2491 
L 2053 2491 
Q 2509 2491 2742 2702 
Q 2975 2913 2975 3322 
Q 2975 3731 2742 3939 
Q 2509 4147 2053 4147 
L 1259 4147 
z
" transform="scale(0.015625)"/>
      <path id="DejaVuSans-69" d="M 603 3500 
L 1178 3500 
L 1178 0 
L 603 0 
L 603 3500 
z
M 603 4863 
L 1178 4863 
L 1178 4134 
L 603 4134 
L 603 4863 
z
" transform="scale(0.015625)"/>
      <path id="DejaVuSans-66" d="M 2375 4863 
L 2375 4384 
L 1825 4384 
Q 1516 4384 1395 4259 
Q 1275 4134 1275 3809 
L 1275 3500 
L 2222 3500 
L 2222 3053 
L 1275 3053 
L 1275 0 
L 697 0 
L 697 3053 
L 147 3053 
L 147 3500 
L 697 3500 
L 697 3744 
Q 697 4328 969 4595 
Q 1241 4863 1831 4863 
L 2375 4863 
z
" transform="scale(0.015625)"/>
      <path id="DejaVuSans-53" d="M 3425 4513 
L 3425 3897 
Q 3066 4069 2747 4153 
Q 2428 4238 2131 4238 
Q 1616 4238 1336 4038 
Q 1056 3838 1056 3469 
Q 1056 3159 1242 3001 
Q 1428 2844 1947 2747 
L 2328 2669 
Q 3034 2534 3370 2195 
Q 3706 1856 3706 1288 
Q 3706 609 3251 259 
Q 2797 -91 1919 -91 
Q 1588 -91 1214 -16 
Q 841 59 441 206 
L 441 856 
Q 825 641 1194 531 
Q 1563 422 1919 422 
Q 2459 422 2753 634 
Q 3047 847 3047 1241 
Q 3047 1584 2836 1778 
Q 2625 1972 2144 2069 
L 1759 2144 
Q 1053 2284 737 2584 
Q 422 2884 422 3419 
Q 422 4038 858 4394 
Q 1294 4750 2059 4750 
Q 2388 4750 2728 4690 
Q 3069 4631 3425 4513 
z
" transform="scale(0.015625)"/>
      <path id="DejaVuSans-30" d="M 2034 4250 
Q 1547 4250 1301 3770 
Q 1056 3291 1056 2328 
Q 1056 1369 1301 889 
Q 1547 409 2034 409 
Q 2525 409 2770 889 
Q 3016 1369 3016 2328 
Q 3016 3291 2770 3770 
Q 2525 4250 2034 4250 
z
M 2034 4750 
Q 2819 4750 3233 4129 
Q 3647 3509 3647 2328 
Q 3647 1150 3233 529 
Q 2819 -91 2034 -91 
Q 1250 -91 836 529 
Q 422 1150 422 2328 
Q 422 3509 836 4129 
Q 1250 4750 2034 4750 
z
" transform="scale(0.015625)"/>
     </defs>
     <use xlink:href="#DejaVuSans-4f"/>
     <use xlink:href="#DejaVuSans-63" x="78.710938"/>
     <use xlink:href="#DejaVuSans-75" x="133.691406"/>
     <use xlink:href="#DejaVuSans-6c" x="197.070312"/>
     <use xlink:href="#DejaVuSans-75" x="224.853516"/>
     <use xlink:href="#DejaVuSans-73" x="288.232422"/>
     <use xlink:href="#DejaVuSans-20" x="340.332031"/>
     <use xlink:href="#DejaVuSans-52" x="372.119141"/>
     <use xlink:href="#DejaVuSans-69" x="441.601562"/>
     <use xlink:href="#DejaVuSans-66" x="469.384766"/>
     <use xlink:href="#DejaVuSans-74" x="502.839844"/>
     <use xlink:href="#DejaVuSans-20" x="542.048828"/>
     <use xlink:href="#DejaVuSans-53" x="573.835938"/>
     <use xlink:href="#DejaVuSans-20" x="637.3125"/>
     <use xlink:href="#DejaVuSans-2d" x="669.099609"/>
     <use xlink:href="#DejaVuSans-20" x="705.183594"/>
     <use xlink:href="#DejaVuSans-31" x="736.970703"/>
     <use xlink:href="#DejaVuSans-30" x="800.59375"/>
     <use xlink:href="#DejaVuSans-20" x="864.216797"/>
     <use xlink:href="#DejaVuSans-25" x="896.003906"/>
    </g>
   </g>
   <g id="patch_8">
    <path d="M 343.901563 374.724582 
L 351.107234 374.724582 
L 410.905031 347.687648 
" style="fill: none; stroke: #000000; stroke-linecap: round"/>
   </g>
   <g id="text_4">
    <g id="patch_9">
     <path d="M 261.8663 382.563645 
L 341.539738 382.563645 
L 341.539738 366.88552 
L 261.8663 366.88552 
z
" style="fill: #ffffff; stroke: #000000; stroke-width: 0.72; stroke-linejoin: miter"/>
    </g>
    <!-- HTC Vive - 6 % -->
    <g transform="translate(264.8663 377.483957) scale(0.1 -0.1)">
     <defs>
      <path id="DejaVuSans-54" d="M -19 4666 
L 3928 4666 
L 3928 4134 
L 2272 4134 
L 2272 0 
L 1638 0 
L 1638 4134 
L -19 4134 
L -19 4666 
z
" transform="scale(0.015625)"/>
      <path id="DejaVuSans-43" d="M 4122 4306 
L 4122 3641 
Q 3803 3938 3442 4084 
Q 3081 4231 2675 4231 
Q 1875 4231 1450 3742 
Q 1025 3253 1025 2328 
Q 1025 1406 1450 917 
Q 1875 428 2675 428 
Q 3081 428 3442 575 
Q 3803 722 4122 1019 
L 4122 359 
Q 3791 134 3420 21 
Q 3050 -91 2638 -91 
Q 1578 -91 968 557 
Q 359 1206 359 2328 
Q 359 3453 968 4101 
Q 1578 4750 2638 4750 
Q 3056 4750 3426 4639 
Q 3797 4528 4122 4306 
z
" transform="scale(0.015625)"/>
      <path id="DejaVuSans-36" d="M 2113 2584 
Q 1688 2584 1439 2293 
Q 1191 2003 1191 1497 
Q 1191 994 1439 701 
Q 1688 409 2113 409 
Q 2538 409 2786 701 
Q 3034 994 3034 1497 
Q 3034 2003 2786 2293 
Q 2538 2584 2113 2584 
z
M 3366 4563 
L 3366 3988 
Q 3128 4100 2886 4159 
Q 2644 4219 2406 4219 
Q 1781 4219 1451 3797 
Q 1122 3375 1075 2522 
Q 1259 2794 1537 2939 
Q 1816 3084 2150 3084 
Q 2853 3084 3261 2657 
Q 3669 2231 3669 1497 
Q 3669 778 3244 343 
Q 2819 -91 2113 -91 
Q 1303 -91 875 529 
Q 447 1150 447 2328 
Q 447 3434 972 4092 
Q 1497 4750 2381 4750 
Q 2619 4750 2861 4703 
Q 3103 4656 3366 4563 
z
" transform="scale(0.015625)"/>
     </defs>
     <use xlink:href="#DejaVuSans-48"/>
     <use xlink:href="#DejaVuSans-54" x="75.195312"/>
     <use xlink:href="#DejaVuSans-43" x="130.404297"/>
     <use xlink:href="#DejaVuSans-20" x="200.228516"/>
     <use xlink:href="#DejaVuSans-56" x="232.015625"/>
     <use xlink:href="#DejaVuSans-69" x="298.173828"/>
     <use xlink:href="#DejaVuSans-76" x="325.957031"/>
     <use xlink:href="#DejaVuSans-65" x="385.136719"/>
     <use xlink:href="#DejaVuSans-20" x="446.660156"/>
     <use xlink:href="#DejaVuSans-2d" x="478.447266"/>
     <use xlink:href="#DejaVuSans-20" x="514.53125"/>
     <use xlink:href="#DejaVuSans-36" x="546.318359"/>
     <use xlink:href="#DejaVuSans-20" x="609.941406"/>
     <use xlink:href="#DejaVuSans-25" x="641.728516"/>
    </g>
   </g>
   <g id="patch_10">
    <path d="M 343.897897 433.96673 
L 389.43483 433.96673 
L 438.606051 390.504521 
" style="fill: none; stroke: #000000; stroke-linecap: round"/>
   </g>
   <g id="text_5">
    <g id="patch_11">
     <path d="M 191.855363 441.805792 
L 341.539738 441.805792 
L 341.539738 426.127667 
L 191.855363 426.127667 
z
" style="fill: #ffffff; stroke: #000000; stroke-width: 0.72; stroke-linejoin: miter"/>
    </g>
    <!-- Windows Mixed Reality - 4 % -->
    <g transform="translate(194.855363 436.726105) scale(0.1 -0.1)">
     <defs>
      <path id="DejaVuSans-57" d="M 213 4666 
L 850 4666 
L 1831 722 
L 2809 4666 
L 3519 4666 
L 4500 722 
L 5478 4666 
L 6119 4666 
L 4947 0 
L 4153 0 
L 3169 4050 
L 2175 0 
L 1381 0 
L 213 4666 
z
" transform="scale(0.015625)"/>
      <path id="DejaVuSans-6f" d="M 1959 3097 
Q 1497 3097 1228 2736 
Q 959 2375 959 1747 
Q 959 1119 1226 758 
Q 1494 397 1959 397 
Q 2419 397 2687 759 
Q 2956 1122 2956 1747 
Q 2956 2369 2687 2733 
Q 2419 3097 1959 3097 
z
M 1959 3584 
Q 2709 3584 3137 3096 
Q 3566 2609 3566 1747 
Q 3566 888 3137 398 
Q 2709 -91 1959 -91 
Q 1206 -91 779 398 
Q 353 888 353 1747 
Q 353 2609 779 3096 
Q 1206 3584 1959 3584 
z
" transform="scale(0.015625)"/>
      <path id="DejaVuSans-77" d="M 269 3500 
L 844 3500 
L 1563 769 
L 2278 3500 
L 2956 3500 
L 3675 769 
L 4391 3500 
L 4966 3500 
L 4050 0 
L 3372 0 
L 2619 2869 
L 1863 0 
L 1184 0 
L 269 3500 
z
" transform="scale(0.015625)"/>
      <path id="DejaVuSans-79" d="M 2059 -325 
Q 1816 -950 1584 -1140 
Q 1353 -1331 966 -1331 
L 506 -1331 
L 506 -850 
L 844 -850 
Q 1081 -850 1212 -737 
Q 1344 -625 1503 -206 
L 1606 56 
L 191 3500 
L 800 3500 
L 1894 763 
L 2988 3500 
L 3597 3500 
L 2059 -325 
z
" transform="scale(0.015625)"/>
     </defs>
     <use xlink:href="#DejaVuSans-57"/>
     <use xlink:href="#DejaVuSans-69" x="96.626953"/>
     <use xlink:href="#DejaVuSans-6e" x="124.410156"/>
     <use xlink:href="#DejaVuSans-64" x="187.789062"/>
     <use xlink:href="#DejaVuSans-6f" x="251.265625"/>
     <use xlink:href="#DejaVuSans-77" x="312.447266"/>
     <use xlink:href="#DejaVuSans-73" x="394.234375"/>
     <use xlink:href="#DejaVuSans-20" x="446.333984"/>
     <use xlink:href="#DejaVuSans-4d" x="478.121094"/>
     <use xlink:href="#DejaVuSans-69" x="564.400391"/>
     <use xlink:href="#DejaVuSans-78" x="592.183594"/>
     <use xlink:href="#DejaVuSans-65" x="648.238281"/>
     <use xlink:href="#DejaVuSans-64" x="709.761719"/>
     <use xlink:href="#DejaVuSans-20" x="773.238281"/>
     <use xlink:href="#DejaVuSans-52" x="805.025391"/>
     <use xlink:href="#DejaVuSans-65" x="870.007812"/>
     <use xlink:href="#DejaVuSans-61" x="931.53125"/>
     <use xlink:href="#DejaVuSans-6c" x="992.810547"/>
     <use xlink:href="#DejaVuSans-69" x="1020.59375"/>
     <use xlink:href="#DejaVuSans-74" x="1048.376953"/>
     <use xlink:href="#DejaVuSans-79" x="1087.585938"/>
     <use xlink:href="#DejaVuSans-20" x="1146.765625"/>
     <use xlink:href="#DejaVuSans-2d" x="1178.552734"/>
     <use xlink:href="#DejaVuSans-20" x="1214.636719"/>
     <use xlink:href="#DejaVuSans-34" x="1246.423828"/>
     <use xlink:href="#DejaVuSans-20" x="1310.046875"/>
     <use xlink:href="#DejaVuSans-25" x="1341.833984"/>
    </g>
   </g>
   <g id="patch_12">
    <path d="M 789.66919 513.274638 
L 584.066108 513.274638 
L 579.27453 447.823792 
" style="fill: none; stroke: #000000; stroke-linecap: round"/>
   </g>
   <g id="text_6">
    <g id="patch_13">
     <path d="M 792.028262 521.1137 
L 869.115762 521.1137 
L 869.115762 505.435575 
L 792.028262 505.435575 
z
" style="fill: #ffffff; stroke: #000000; stroke-width: 0.72; stroke-linejoin: miter"/>
    </g>
    <!-- Andere - 25 % -->
    <g transform="translate(795.028262 516.034013) scale(0.1 -0.1)">
     <defs>
      <path id="DejaVuSans-41" d="M 2188 4044 
L 1331 1722 
L 3047 1722 
L 2188 4044 
z
M 1831 4666 
L 2547 4666 
L 4325 0 
L 3669 0 
L 3244 1197 
L 1141 1197 
L 716 0 
L 50 0 
L 1831 4666 
z
" transform="scale(0.015625)"/>
      <path id="DejaVuSans-72" d="M 2631 2963 
Q 2534 3019 2420 3045 
Q 2306 3072 2169 3072 
Q 1681 3072 1420 2755 
Q 1159 2438 1159 1844 
L 1159 0 
L 581 0 
L 581 3500 
L 1159 3500 
L 1159 2956 
Q 1341 3275 1631 3429 
Q 1922 3584 2338 3584 
Q 2397 3584 2469 3576 
Q 2541 3569 2628 3553 
L 2631 2963 
z
" transform="scale(0.015625)"/>
      <path id="DejaVuSans-35" d="M 691 4666 
L 3169 4666 
L 3169 4134 
L 1269 4134 
L 1269 2991 
Q 1406 3038 1543 3061 
Q 1681 3084 1819 3084 
Q 2600 3084 3056 2656 
Q 3513 2228 3513 1497 
Q 3513 744 3044 326 
Q 2575 -91 1722 -91 
Q 1428 -91 1123 -41 
Q 819 9 494 109 
L 494 744 
Q 775 591 1075 516 
Q 1375 441 1709 441 
Q 2250 441 2565 725 
Q 2881 1009 2881 1497 
Q 2881 1984 2565 2268 
Q 2250 2553 1709 2553 
Q 1456 2553 1204 2497 
Q 953 2441 691 2322 
L 691 4666 
z
" transform="scale(0.015625)"/>
     </defs>
     <use xlink:href="#DejaVuSans-41"/>
     <use xlink:href="#DejaVuSans-6e" x="68.408203"/>
     <use xlink:href="#DejaVuSans-64" x="131.787109"/>
     <use xlink:href="#DejaVuSans-65" x="195.263672"/>
     <use xlink:href="#DejaVuSans-72" x="256.787109"/>
     <use xlink:href="#DejaVuSans-65" x="295.650391"/>
     <use xlink:href="#DejaVuSans-20" x="357.173828"/>
     <use xlink:href="#DejaVuSans-2d" x="388.960938"/>
     <use xlink:href="#DejaVuSans-20" x="425.044922"/>
     <use xlink:href="#DejaVuSans-32" x="456.832031"/>
     <use xlink:href="#DejaVuSans-35" x="520.455078"/>
     <use xlink:href="#DejaVuSans-20" x="584.078125"/>
     <use xlink:href="#DejaVuSans-25" x="615.865234"/>
    </g>
   </g>
   <g id="patch_14">
    <path d="M 696.298999 385.884628 
C 720.524753 357.013499 734.414744 320.854582 735.748001 283.189589 
C 737.081258 245.524596 725.782718 208.474061 703.658987 177.962264 
C 681.535257 147.450466 649.831898 125.195215 613.618192 114.755065 
C 577.404486 104.314916 538.719258 106.277646 503.748171 120.32942 
L 535.266086 198.76903 
C 552.751629 191.743143 572.094243 190.761778 590.201096 195.981853 
C 608.307949 201.201928 624.159628 212.329553 635.221494 227.585452 
C 646.283359 242.841351 651.932629 261.366618 651.266001 280.199114 
C 650.599372 299.031611 643.654376 317.111069 631.5415 331.546634 
L 696.298999 385.884628 
z
" style="fill: #1f77b4"/>
   </g>
   <g id="patch_15">
    <path d="M 503.748171 120.32942 
C 481.97282 129.079 462.255804 142.267235 445.855348 159.052529 
C 429.454891 175.837824 416.727437 195.855371 408.485177 217.827767 
L 487.634589 247.518204 
C 491.755719 236.532005 498.119446 226.523232 506.319674 218.130585 
C 514.519902 209.737938 524.37841 203.14382 535.266086 198.76903 
L 503.748171 120.32942 
z
" style="fill: #ff7f0e"/>
   </g>
   <g id="patch_16">
    <path d="M 408.485177 217.827767 
C 402.488857 233.812889 398.948262 250.614459 397.984033 267.659993 
C 397.019805 284.705527 398.643019 301.799202 402.798367 318.358582 
L 484.791184 297.783611 
C 482.713509 289.503921 481.901902 280.957083 482.384017 272.434316 
C 482.866131 263.911549 484.636428 255.510764 487.634589 247.518204 
L 408.485177 217.827767 
z
" style="fill: #2ca02c"/>
   </g>
   <g id="patch_17">
    <path d="M 402.798367 318.358582 
C 405.25215 328.137091 408.575665 337.676552 412.729167 346.862885 
C 416.882669 356.049217 421.849535 364.845655 427.570366 373.147003 
L 497.177183 325.177821 
C 494.316767 321.027148 491.833334 316.628929 489.756583 312.035762 
C 487.679832 307.442596 486.018075 302.672865 484.791184 297.783611 
L 402.798367 318.358582 
z
" style="fill: #d62728"/>
   </g>
   <g id="patch_18">
    <path d="M 427.570366 373.147003 
C 431.423213 378.737768 435.609348 384.091366 440.106022 389.178704 
C 444.602695 394.266042 449.401747 399.077886 454.477096 403.588087 
L 510.630548 340.398364 
C 508.092874 338.143263 505.693348 335.737341 503.445011 333.193672 
C 501.196674 330.650003 499.103606 327.973204 497.177183 325.177821 
L 427.570366 373.147003 
z
" style="fill: #9467bd"/>
   </g>
   <g id="patch_19">
    <path d="M 454.477096 403.588087 
C 471.37486 418.60426 491.113911 430.080033 512.523855 437.334972 
C 533.9338 444.58991 556.58295 447.477732 579.128363 445.82721 
C 601.673775 444.176687 623.660868 438.021099 643.785954 427.725431 
C 663.911039 417.429763 681.768337 403.201606 696.299027 385.884595 
L 631.541514 331.546617 
C 624.276168 340.205123 615.34752 347.319202 605.284977 352.467036 
C 595.222434 357.61487 584.228888 360.692664 572.956181 361.517925 
C 561.683475 362.343186 550.3589 360.899275 539.653928 357.271806 
C 528.948956 353.644337 519.07943 347.90645 510.630548 340.398364 
L 454.477096 403.588087 
z
" style="fill: #8c564b"/>
   </g>
   <g id="matplotlib.axis_1"/>
   <g id="matplotlib.axis_2"/>
  </g>
 </g>
</svg>
